<svg xmlns="http://www.w3.org/2000/svg" viewBox="0 716.9 595.3 125" enable-background="new 0 716.9 595.3 125"><linearGradient id="a" gradientUnits="userSpaceOnUse" x1="10265.0918" y1="88964.8672" x2="10621.6924" y2="88964.8672" gradientTransform="matrix(.082 -.066 .062 .078 -5832.869 -5490.074)"><stop offset="0" stop-color="#9DB928"/><stop offset="1" stop-color="#B0CC3E"/></linearGradient><path fill="url(#a)" d="M543.6 747.8c2.7-5.3 3.4-9.9 2-13.6-1.7-4.6-6.1-7.6-13.4-9.2-6.3-1.4-10.8-.3-13.6 3.4-2.3 3.1-3.4 7.5-2.9 13.6.3 5.2 1.5 10.4 3.7 15.7 2 5 3.8 8.2 5.8 9.6 2.1-.6 5.2-2.9 8.9-6.6 4.2-4.3 7.3-8.6 9.5-12.9z"/><path fill="#343434" d="M529.6 743.7c-2.3-.5-3.8 0-4.7 1.2-.8 1.1-1.2 2.6-1.1 4.7.2 1.8.5 3.7 1.2 5.5.6 1.8 1.4 2.9 2 3.4.8-.3 1.8-1.1 3.1-2.3 1.5-1.5 2.6-2.9 3.4-4.4.9-1.8 1.2-3.4.8-4.7-.6-1.7-2.3-2.8-4.7-3.4z"/><linearGradient id="b" gradientUnits="userSpaceOnUse" x1="341.0636" y1="767.3889" x2="365.2138" y2="767.3889" gradientTransform="matrix(1.527 0 0 1.527 25.478 -414.562)"><stop offset="0" stop-color="#9DB928"/><stop offset="1" stop-color="#B0CC3E"/></linearGradient><path fill="url(#b)" d="M573.1 770.3c5.3-2.7 8.6-6 9.8-9.8 1.4-4.6-.5-9.8-5.3-15.3-4.3-4.9-8.6-6.6-13-5.3-3.7 1.1-7.2 4.1-10.4 9.2-2.7 4.3-4.9 9.3-6.4 14.7-1.4 5.2-1.8 9-1.1 11.2 2.1.8 5.8.8 11.2 0 5.8-.9 11-2.4 15.2-4.7z"/><path fill="#343434" d="M564.3 758.7c-1.5-1.7-3.1-2.3-4.6-1.8-1.2.3-2.4 1.4-3.7 3.2-.9 1.5-1.7 3.2-2.1 5.2-.5 1.8-.6 3.1-.3 3.8.8.3 2 .3 3.8 0 2-.3 3.8-.8 5.3-1.7 1.8-.9 3.1-2 3.4-3.4.5-1.5-.1-3.4-1.8-5.3z"/><linearGradient id="c" gradientUnits="userSpaceOnUse" x1="80699.2812" y1="10752.2744" x2="81055.7578" y2="10752.2744" gradientTransform="matrix(.088 .057 -.054 .083 -5944.571 -4721.565)"><stop offset="0" stop-color="#9DB928"/><stop offset="1" stop-color="#B0CC3E"/></linearGradient><path fill="url(#c)" d="M577.1 807.8c6 .9 10.4.2 13.6-2.3 3.8-2.9 5.2-8.1 4.4-15.6-.6-6.4-3.2-10.2-7.5-11.8-3.7-1.2-8.2-.8-13.7 1.5-4.7 2-9.3 4.7-13.6 8.2-4.1 3.4-6.6 6.3-7.2 8.6 1.4 1.8 4.3 4 9 6.4 5.1 2.7 10.1 4.3 15 5z"/><path fill="#343434" d="M576.5 793.3c-.3-2.3-1.1-3.7-2.6-4.1-1.2-.5-2.9-.3-4.9.5-1.7.8-3.4 1.7-4.7 2.9-1.4 1.2-2.3 2.1-2.6 3.1.5.6 1.5 1.4 3.2 2.1 1.8.9 3.7 1.5 5.3 1.8 2 .3 3.7 0 4.7-.8 1.3-1.2 1.9-3 1.6-5.5z"/><path fill="#ABC738" d="M3.8 786.5c-.3-.8-.3-1.1-.3-1.5 0-.3.2-.9.3-1.5 2.6-2.3 9.9-5.7 18-5.8 1.8 0 2.1 0 4.1.2 9.3.6 12.4 6.4 12.4 16.5v5c0 4.3 0 8.9-.2 13.1 0 2.6-.2 7.9-.2 9.9 0 0-.3 5.2 3.2 4.6-.2 1.7-.3 4.3-.3 5-1.1 1.5-3.7 3.2-7.2 3.2-2.7 0-5.5-1.7-7-3.4-.6.5-1.8 1.2-2.6 1.7-2.7 1.4-5.7 1.7-9 1.7-7.5 0-15-4.9-15-15.8 0-14.1 13-18.2 20.3-18.9 1.1-.2 2.3-.2 3.4-.2s1.8 0 2.6.2v-5.7c0-4.9-.5-7.5-4.3-7.5-3.7 0-8.2 1.7-11.6 2.9-1.2.6-2.6.9-4.3.9-1.7-1.6-2.1-3.6-2.3-4.6zm22.5 29.6v-7.6h-1.2c-1.2 0-2.4.2-3.7.3h.2c-5 .9-9.3 3.2-9.3 9.9 0 5.3 2.1 7.3 5 7.5h.7c3.1 0 6.6-1.5 7.9-3.4l-.2.2c0 .2.2-.8.3-1.4.3-1.5.3-3.2.3-5.5zm39.8 11c-.2 1.7-.3 4.4-.3 5-1.2 1.7-3.7 3.2-7.2 3.2-1.7 0-3.4-.8-4.6-1.7-2.1-1.5-3.4-3.8-3.4-6.1v-59.3c0-5.7-.2-9.5-.3-12.8 1.4-3.2 5.7-3.7 11.5-3.7.8 2.6.8 5.3.8 11.3v59.4c.2.1-.1 5.3 3.5 4.7zm28.8-49.4c7.3.6 10.8 3.7 11.3 5.2 0 1.5-1.1 4.3-2.3 6-.5-.2-1.7-.3-2.3-.5-1.2-.3-2.6-.5-3.8-.9-1.7-.8-3.5-1.1-5.2-1.1-4.1 0-6.6 2.1-6.6 5.3 0 1.8.8 3.5 3.2 5.5 1.2.9 3.1 2.1 4.9 3.5 2.1 1.7 4.7 3.5 6.7 5 4.9 4.1 7.2 8.1 7.2 13 0 11-9 16.7-20.3 16.7-7.5 0-14.1-2.3-15.4-5.7 0-1.7.9-4.4 2.3-6.3h1.2c1.1 0 2.1.3 3.5 1.1v-.2c2.4 1.1 5.5 1.8 8.2 1.8.6 0 1.4-.2 2.1-.3 3.5-.3 5.7-2.7 5.7-6.3 0-2.6-1.2-4.7-4.4-7-.5-.3-1.7-1.2-1.4-.9-2.6-1.8-5.7-4.3-7.9-6.1l-3.4-2.3c-3.7-3.7-5.3-7.2-5.3-11.3 0-9.2 7.5-14.7 18.6-14.7 1.2.4 2.6.5 3.4.5zm22 8.8c-.3-.8-.3-1.1-.3-1.5 0-.3.2-.9.3-1.5 2.6-2.3 9.9-5.7 18-5.8 1.8 0 2.1 0 4.1.2 9.3.6 12.4 6.4 12.4 16.5v5c0 4.3 0 8.9-.2 13.1 0 2.6-.2 7.9-.2 9.9 0 0-.3 5.2 3.2 4.6-.2 1.7-.3 4.3-.3 5-1.1 1.5-3.7 3.2-7.2 3.2-2.7 0-5.5-1.7-7-3.4-.6.5-1.8 1.2-2.6 1.7-2.7 1.4-5.7 1.7-9 1.7-7.9 0-15.4-4.9-15.4-15.7 0-14.1 13-18.2 20.3-18.9 1.1-.2 2.3-.2 3.4-.2s1.8 0 2.6.2v-5.7c0-4.9-.5-7.5-4.3-7.5-3.7 0-8.2 1.7-11.6 2.9-1.2.6-2.6.9-4.3.9-1.3-1.7-1.8-3.7-1.9-4.7zm22.4 29.6v-7.6h-1.2c-1.2 0-2.4.2-3.7.3h.2c-4.9.8-9.3 2.9-9.3 9.8 0 5.3 2.1 7.3 5 7.5h.8c3.1 0 6.6-1.5 7.9-3.4l-.2.2c0 .2.2-.8.3-1.4.2-1.4.2-3.1.2-5.4z"/><path fill="#4B4A4A" d="M199.6 782.6c0 1.5-.8 4.3-1.8 6.3h-1.4c-1.2 0-2.4-.3-3.8-.8-1.8-.8-4.1-1.4-6.1-1.4-.3 0-.8 0-1.2.2-6.7.6-11.5 6.6-11.5 20 0 16 6.6 19.4 13.4 19.4 3.7 0 7.6-1.2 10.7-2.7.6 1.7 1.1 3.7 1.1 4.4-.2 1.7-1.4 3.7-3.1 5-2.3 1.7-6.3 2.6-10.8 2.6-12.8 0-24.1-4.7-24.1-28.1 0-12.2 4.1-19.9 8.7-24.1 4.6-4.3 10.7-5.7 16.5-5.7 7.2-.1 12.8 3.4 13.4 4.9zm20.5 8.7V828c0 1.8-.2 3.2-1.2 4.7-1.8 1.4-3.7 1.5-11.2 1.5.2-6.1.3-14.1.3-23.1l.2-19.4c0-3.7-.8-6.4-1.5-8.7.9-.9 2.4-1.8 5-2.9.8-.3 1.2-.3 1.7-.3 2.4 0 3.5.8 4.1 2.3 2.1-1.5 4.6-2.6 6.9-3.4 2-.8 4.6-1.2 6.7-.9 3.4.3 5.5 1.5 5.8 3.2 0 1.7-.5 5-2.1 7.3-.8.3-.8.3-1.8.3-1.2 0-2.4-.2-3.4-.3-.8-.3-1.2-.3-1.5-.3-3.2.4-5.8 1.2-8 3.3zm59 31.1c.8 2.1 1.1 4.6 1.2 5.8-.2 2.4-4 5-7.5 6.1h.2c-1.7.5-5.3 1.2-9 1.2-5.8 0-11.8-1.1-16.3-5.7-4.3-4.4-6.4-11.8-6.4-21.2 0-22.6 9.8-30.9 23.1-30.9 11 0 16.8 6.6 17.7 16.7.2 1.7.3 3.7.3 5.7 0 2.6-.3 5-.6 6.9-1.4 1.2-5.7 2.6-9 3.2-3.7.5-9.5.8-15 .8-1.8 0-2.1.2-4.1 0 .3 11.6 5 15.3 12.4 15.3 4.1-.6 8.6-1.5 13-3.9zm-16.7-36.3c-4.1.6-8.2 5.5-9 15.9h3.2c4.1 0 8.9-.2 11.2-.3.6-.2 1.2-.2 1.7-.5.3-.8.5-2.1.5-3.5 0-.5-.2-.8-.2-1.2v-1.2c-.6-6.1-2.7-9.2-7-9.2h-.4zm28.9.4c-.3-.8-.3-1.1-.3-1.5 0-.3.2-.9.3-1.5 2.6-2.3 9.9-5.7 18-5.8 1.8 0 2.1 0 4.1.2 9.3.6 12.4 6.4 12.4 16.5v5c0 4.3 0 8.9-.2 13.1 0 2.6-.2 7.9-.2 9.9 0 0-.3 5.2 3.2 4.6-.2 1.7-.3 4.3-.3 5-1.1 1.5-3.7 3.2-7.2 3.2-2.7 0-5.5-1.7-7-3.4-.6.5-1.8 1.2-2.6 1.7-2.7 1.4-5.7 1.7-9 1.7-7.9 0-15.4-4.9-15.4-15.7 0-14.1 13-18.2 20.3-18.9 1.1-.2 2.3-.2 3.4-.2s1.8 0 2.6.2v-5.7c0-4.9-.5-7.5-4.3-7.5-3.7 0-8.2 1.7-11.6 2.9-1.2.6-2.6.9-4.3.9-1.3-1.7-1.7-3.7-1.9-4.7zm22.5 29.6v-7.6h-1.2c-1.2 0-2.4.2-3.7.3h.2c-5 .9-9.3 3.2-9.3 9.9 0 5.3 2.1 7.3 5 7.5h.8c3.1 0 6.6-1.5 7.9-3.4l-.2.2c0 .2.2-.8.3-1.4.2-1.5.2-3.2.2-5.5zm53.4 8.5c.2.8.3 1.7.3 2.6 0 1.1 0 2.3-.2 3.2-.3.8-.8 1.5-1.7 2.1-2.7 1.7-7 2.7-10.8 2.7-11.6 0-13.9-10.4-13.9-19.9v-27.5c-3.2-.2-5.2-.8-6.9-1.7 0-3.4.2-3.4 1.1-4.3 1.7-1.2 3.5-1.7 5-2.1.9-.3 1.2 0 1.8-.3.2-3.2.5-6.9.6-10.1.9-2.6 4-4.9 11-5.3v1.8c-.2 4.9-.3 8.6-.3 13H368c-.3 6.6-1.2 7.9-3.7 8.6-.8.2-2 .3-2.9.3-2.3.2-4 .2-8.2.2-.2 5-.3 10.1-.3 15 0 2.6.2 5 .2 7.5v5.7c.5 6.1 1.2 10.4 5 10.4 1.5.2 6.1-1.5 7-2.1l2.1.2zm15.6-71.8c5.5 0 6.6 2.3 6.4 6.7-.2 4.4-1.5 7.5-7 7.5-4.7 0-6.6-2.1-6.6-7.2 0-4.5 2.3-7 7.2-7zm4.6 26.3c.9 1.8 1.1 3.5 1.1 8.4v38.8c0 2.6-.5 4.6-1.7 6.4-.8 1.2-2.7 1.2-10.8 1.5v-9.5c0-3.4.2-7 .2-10.7v-20.3c0-5.2-.2-8.9-.3-11.9 1.4-2.9 5.3-3.2 10.5-3.2l1 .5zm33.6 56.4c-14.8 0-23.2-8.6-23.2-28.9 0-20 9.8-29.2 23.5-29.2 15.3 0 22.9 9.8 22.9 28.4 0 19.8-9.9 29.7-23.2 29.7zm.1-8.6c5.5 0 10.2-5.2 10.2-20.6 0-14.5-4.1-20-10.4-20-5.5 0-10.4 5.5-10.4 19.9.1 15.5 4.7 20.7 10.6 20.7zm44.6-35.1l.3-.3v35.7c0 2.6-.3 4-1.4 5.7-1.7 1.4-2.9 1.4-8.1 1.5h-3.1c.2-6.1.3-14.1.3-22.9v-19.7c0-3.7-.5-6.4-1.2-8.7.8-.9 2.3-1.8 4.9-2.9.8-.3 1.4-.3 1.7-.3 2.1 0 3.5 1.1 4.1 2.4 2.3-1.7 4.7-2.7 6.9-3.5 2.4-.8 4.7-1.2 7.5-1.2 14.5 0 17.3 7.5 17.3 20.6v17.6c0 6.3.2 11.9.3 16.5-1.5 1.4-3.7 1.8-11.3 1.8-.9-1.7-1.2-3.5-1.2-5.2v-30.2c0-8.4-2-11.5-7.9-11.5-3.7 0-6.8 2-9.1 4.6zm61.1-14.1c7.3.6 10.8 3.7 11.3 5.2 0 1.5-1.1 4.3-2.3 6-.5-.2-1.7-.3-2.3-.5-1.2-.3-2.6-.5-3.8-.9-1.7-.8-3.5-1.1-5.2-1.1-4.1 0-6.6 2.1-6.6 5.3 0 1.8.8 3.5 3.2 5.5 1.2.9 3.1 2.1 4.9 3.5 2.1 1.7 4.7 3.5 6.7 5 4.9 4.1 7.2 8.1 7.2 13 0 11-9 16.7-20.3 16.7-7.5 0-14.1-2.3-15.4-5.7 0-1.7.9-4.4 2.3-6.3h1.2c1.1 0 2.1.3 3.5 1.1v-.2c2.4 1.1 5.5 1.8 8.2 1.8.6 0 1.4-.2 2.1-.3 3.5-.3 5.7-2.7 5.7-6.3 0-2.6-1.2-4.7-4.4-7-.5-.3-1.7-1.2-1.4-.9-2.7-1.8-5.7-4.3-7.9-6.1l-3.4-2.3c-3.7-3.7-5.3-7.2-5.3-11.3 0-9.2 7.5-14.7 18.6-14.7 1.3.4 2.7.5 3.4.5zm-272.2-8.4s1.2-7.9 4.6-12.7c3.8-5.2 9.6-8.1 13.6-3.2 2.9 3.5 2.1 7.2-4 11.2-7.4 4.7-14.2 4.7-14.2 4.7z"/></svg>